<svg width="61" height="59" viewBox="0 0 61 59" fill="none" xmlns="http://www.w3.org/2000/svg">
<path d="M0.552 58.52L7.976 11.8H17.256L16.168 18.52H18.408L15.848 20.76C16.3173 17.7307 17.512 15.384 19.432 13.72C21.3947 12.0133 23.8267 11.16 26.728 11.16C30.2693 11.16 32.8933 12.4187 34.6 14.936C36.3493 17.4107 36.904 20.7387 36.264 24.92L34.792 33.88C34.3653 36.6533 33.4907 39.0853 32.168 41.176C30.888 43.224 29.288 44.824 27.368 45.976C25.448 47.0853 23.2933 47.64 20.904 47.64C18.0027 47.64 15.848 46.808 14.44 45.144C13.0747 43.4373 12.6267 41.0693 13.096 38.04L15.016 40.28H12.776L11.688 48.92L10.152 58.52H0.552ZM18.792 39.32C20.584 39.32 22.0347 38.8293 23.144 37.848C24.2533 36.824 24.9573 35.3947 25.256 33.56L26.6 25.24C26.8987 23.3627 26.6427 21.9333 25.832 20.952C25.0213 19.9707 23.72 19.48 21.928 19.48C20.1787 19.48 18.728 19.992 17.576 21.016C16.4667 21.9973 15.7627 23.4053 15.464 25.24L14.12 33.56C13.8213 35.3947 14.0773 36.824 14.888 37.848C15.7413 38.8293 17.0427 39.32 18.792 39.32ZM48.079 47C44.3243 47 41.487 45.8693 39.567 43.608C37.6897 41.304 37.0283 38.2747 37.583 34.52L41.615 8.92H30.735L32.143 0.279999H52.623L47.183 34.52C47.0123 35.672 47.2043 36.6107 47.759 37.336C48.3563 38.0187 49.231 38.36 50.383 38.36H60.623L59.279 47H48.079Z" fill="url(#paint0_linear_123_2)"/>
<defs>
<linearGradient id="paint0_linear_123_2" x1="65" y1="-18" x2="-29.6265" y2="66.4459" gradientUnits="userSpaceOnUse">
<stop stop-color="#3D57FF"/>
<stop offset="1" stop-color="#BE73FF"/>
</linearGradient>
</defs>
</svg>
